<mxfile host="Electron" agent="Mozilla/5.0 (Windows NT 10.0; Win64; x64) AppleWebKit/537.36 (KHTML, like Gecko) draw.io/24.7.5 Chrome/126.0.6478.183 Electron/31.3.0 Safari/537.36" version="24.7.5">
  <diagram name="Page-1" id="his_N9ow1WFg8NSZU3bS">
    <mxGraphModel dx="794" dy="511" grid="1" gridSize="10" guides="1" tooltips="1" connect="1" arrows="1" fold="1" page="1" pageScale="1" pageWidth="850" pageHeight="1100" math="0" shadow="0">
      <root>
        <mxCell id="0" />
        <mxCell id="1" parent="0" />
        <mxCell id="EEe4g8qohU4a58DbyTqN-10" style="edgeStyle=orthogonalEdgeStyle;rounded=1;orthogonalLoop=1;jettySize=auto;html=1;exitX=1;exitY=0.5;exitDx=0;exitDy=0;entryX=0.5;entryY=0;entryDx=0;entryDy=0;startArrow=classic;startFill=1;labelBackgroundColor=none;strokeColor=#E07A5F;fontColor=default;strokeWidth=2;" parent="1" source="EEe4g8qohU4a58DbyTqN-1" target="EEe4g8qohU4a58DbyTqN-3" edge="1">
          <mxGeometry relative="1" as="geometry" />
        </mxCell>
        <mxCell id="EEe4g8qohU4a58DbyTqN-11" style="edgeStyle=orthogonalEdgeStyle;rounded=1;orthogonalLoop=1;jettySize=auto;html=1;exitX=0;exitY=0.5;exitDx=0;exitDy=0;entryX=0.5;entryY=0;entryDx=0;entryDy=0;startArrow=classic;startFill=1;labelBackgroundColor=none;strokeColor=#E07A5F;fontColor=default;strokeWidth=2;" parent="1" source="EEe4g8qohU4a58DbyTqN-1" target="EEe4g8qohU4a58DbyTqN-2" edge="1">
          <mxGeometry relative="1" as="geometry" />
        </mxCell>
        <mxCell id="EEe4g8qohU4a58DbyTqN-13" style="edgeStyle=orthogonalEdgeStyle;rounded=1;orthogonalLoop=1;jettySize=auto;html=1;exitX=0.5;exitY=1;exitDx=0;exitDy=0;startArrow=classic;startFill=1;labelBackgroundColor=none;strokeColor=#E07A5F;fontColor=default;strokeWidth=2;" parent="1" source="EEe4g8qohU4a58DbyTqN-1" target="EEe4g8qohU4a58DbyTqN-4" edge="1">
          <mxGeometry relative="1" as="geometry" />
        </mxCell>
        <mxCell id="EEe4g8qohU4a58DbyTqN-1" value="Homepage" style="whiteSpace=wrap;html=1;aspect=fixed;rounded=1;labelBackgroundColor=none;fillColor=#F2CC8F;strokeColor=#E07A5F;fontColor=#393C56;strokeWidth=2;" parent="1" vertex="1">
          <mxGeometry x="320" y="60" width="80" height="80" as="geometry" />
        </mxCell>
        <mxCell id="EEe4g8qohU4a58DbyTqN-7" style="edgeStyle=orthogonalEdgeStyle;rounded=1;orthogonalLoop=1;jettySize=auto;html=1;exitX=0.5;exitY=1;exitDx=0;exitDy=0;entryX=0;entryY=0.75;entryDx=0;entryDy=0;startArrow=classic;startFill=1;endArrow=classic;endFill=1;labelBackgroundColor=none;strokeColor=#E07A5F;fontColor=default;strokeWidth=2;" parent="1" source="EEe4g8qohU4a58DbyTqN-2" target="EEe4g8qohU4a58DbyTqN-4" edge="1">
          <mxGeometry relative="1" as="geometry" />
        </mxCell>
        <mxCell id="EEe4g8qohU4a58DbyTqN-2" value="Contact Us" style="whiteSpace=wrap;html=1;aspect=fixed;rounded=1;labelBackgroundColor=none;fillColor=#F2CC8F;strokeColor=#E07A5F;fontColor=#393C56;strokeWidth=2;" parent="1" vertex="1">
          <mxGeometry x="90" y="210" width="80" height="80" as="geometry" />
        </mxCell>
        <mxCell id="FYKvOIZcqZ59CBeFXRC2-1" style="edgeStyle=orthogonalEdgeStyle;rounded=0;orthogonalLoop=1;jettySize=auto;html=1;exitX=0.5;exitY=1;exitDx=0;exitDy=0;entryX=1;entryY=0.75;entryDx=0;entryDy=0;labelBackgroundColor=none;strokeColor=#E07A5F;fontColor=default;startArrow=classic;startFill=1;strokeWidth=2;" edge="1" parent="1" source="EEe4g8qohU4a58DbyTqN-3" target="EEe4g8qohU4a58DbyTqN-4">
          <mxGeometry relative="1" as="geometry" />
        </mxCell>
        <mxCell id="EEe4g8qohU4a58DbyTqN-3" value="Menu" style="whiteSpace=wrap;html=1;aspect=fixed;rounded=1;labelBackgroundColor=none;fillColor=#F2CC8F;strokeColor=#E07A5F;fontColor=#393C56;strokeWidth=2;" parent="1" vertex="1">
          <mxGeometry x="550" y="200" width="80" height="80" as="geometry" />
        </mxCell>
        <mxCell id="EEe4g8qohU4a58DbyTqN-4" value="About Us" style="whiteSpace=wrap;html=1;aspect=fixed;rounded=1;labelBackgroundColor=none;fillColor=#F2CC8F;strokeColor=#E07A5F;fontColor=#393C56;strokeWidth=2;" parent="1" vertex="1">
          <mxGeometry x="320" y="390" width="80" height="80" as="geometry" />
        </mxCell>
        <mxCell id="EEe4g8qohU4a58DbyTqN-9" style="edgeStyle=orthogonalEdgeStyle;rounded=1;orthogonalLoop=1;jettySize=auto;html=1;exitX=1;exitY=0.5;exitDx=0;exitDy=0;entryX=-0.025;entryY=0.633;entryDx=0;entryDy=0;entryPerimeter=0;endArrow=classic;endFill=1;startArrow=classic;startFill=1;labelBackgroundColor=none;strokeColor=#E07A5F;fontColor=default;strokeWidth=2;" parent="1" source="EEe4g8qohU4a58DbyTqN-2" target="EEe4g8qohU4a58DbyTqN-3" edge="1">
          <mxGeometry relative="1" as="geometry" />
        </mxCell>
      </root>
    </mxGraphModel>
  </diagram>
</mxfile>
